<svg xmlns="http://www.w3.org/2000/svg" viewBox="0 0 100 100">
<defs><radialGradient id="bg" cx="50%" cy="42%" r="58%"><stop offset="0%" stop-color="#2e2e2e"/><stop offset="100%" stop-color="#050505"/></radialGradient><clipPath id="cl"><circle cx="50" cy="50" r="48"/></clipPath></defs>
<circle cx="50" cy="50" r="49.5" fill="url(#bg)"/>
<g clip-path="url(#cl)">
<g stroke="#888" stroke-width="0.5" stroke-linecap="round" opacity="0.25">
<line x1="77.5" y1="32.6" x2="70.5" y2="17"/>
<line x1="70.5" y1="17" x2="86.8" y2="34.7"/>
<line x1="86.8" y1="34.7" x2="77.5" y2="32.6"/>
<line x1="70.5" y1="17" x2="57.5" y2="11.3"/>
<line x1="77.5" y1="32.6" x2="66.9" y2="46.7"/>
<line x1="66.9" y1="46.7" x2="58.2" y2="24.4"/>
<line x1="58.2" y1="24.4" x2="77.5" y2="32.6"/>
<line x1="51.2" y1="61.8" x2="42.8" y2="41.6"/>
<line x1="42.8" y1="41.6" x2="66.9" y2="46.7"/>
<line x1="66.9" y1="46.7" x2="51.2" y2="61.8"/>
<line x1="36.5" y1="23.9" x2="58.2" y2="24.4"/>
<line x1="58.2" y1="24.4" x2="42.8" y2="41.6"/>
<line x1="42.8" y1="41.6" x2="36.5" y2="23.9"/>
<line x1="81.2" y1="72.6" x2="89" y2="58.2"/>
<line x1="76.3" y1="78.6" x2="81.2" y2="72.6"/>
<line x1="81.2" y1="72.6" x2="64" y2="86"/>
<line x1="64" y1="86" x2="69.1" y2="70.2"/>
<line x1="69.1" y1="70.2" x2="81.2" y2="72.6"/>
<line x1="42.5" y1="88.7" x2="46.3" y2="79.7"/>
<line x1="46.3" y1="79.7" x2="64" y2="86"/>
<line x1="64" y1="86" x2="42.5" y2="88.7"/>
<line x1="51.2" y1="61.8" x2="69.1" y2="70.2"/>
<line x1="69.1" y1="70.2" x2="46.3" y2="79.7"/>
<line x1="46.3" y1="79.7" x2="51.2" y2="61.8"/>
<line x1="23.7" y1="21.4" x2="11" y2="41.8"/>
<line x1="36.5" y1="23.9" x2="21.5" y2="39.7"/>
<line x1="21.5" y1="39.7" x2="23.7" y2="21.4"/>
<line x1="23.7" y1="21.4" x2="36.5" y2="23.9"/>
<line x1="14.9" y1="58.6" x2="11" y2="41.8"/>
<line x1="11" y1="41.8" x2="21.5" y2="39.7"/>
<line x1="21.5" y1="39.7" x2="14.9" y2="58.6"/>
<line x1="14.9" y1="58.6" x2="25" y2="77.8"/>
<line x1="25" y1="77.8" x2="13.2" y2="65.3"/>
<line x1="13.2" y1="65.3" x2="14.9" y2="58.6"/>
<line x1="29.5" y1="83" x2="25" y2="77.8"/>
<line x1="25" y1="77.8" x2="42.5" y2="88.7"/>
<line x1="46.3" y1="79.7" x2="30.1" y2="62"/>
<line x1="30.1" y1="62" x2="51.2" y2="61.8"/>
<line x1="25" y1="77.8" x2="46.3" y2="79.7"/>
<line x1="14.9" y1="58.6" x2="30.1" y2="62"/>
<line x1="30.1" y1="62" x2="25" y2="77.8"/>
<line x1="30.1" y1="62" x2="42.8" y2="41.6"/>
<line x1="21.5" y1="39.7" x2="30.1" y2="62"/>
<line x1="42.8" y1="41.6" x2="21.5" y2="39.7"/>
<line x1="57.5" y1="11.3" x2="46.5" y2="12"/>
<line x1="46.5" y1="12" x2="70.5" y2="17"/>
<line x1="58.2" y1="24.4" x2="46.5" y2="12"/>
<line x1="46.5" y1="12" x2="36.5" y2="23.9"/>
<line x1="70.5" y1="17" x2="58.2" y2="24.4"/>
<line x1="77.5" y1="32.6" x2="46.5" y2="12"/>
<line x1="46.5" y1="12" x2="70.5" y2="17"/>
<line x1="36" y1="14" x2="46.5" y2="12"/>
<line x1="46.5" y1="12" x2="18.8" y2="27.4"/>
<line x1="76.3" y1="78.6" x2="64" y2="86"/>
</g>
<g stroke="#c8a020" stroke-width="1.3" stroke-linecap="round">
<line x1="70.5" y1="17" x2="36" y2="14"/>
<line x1="81.2" y1="72.6" x2="53.5" y2="88"/>
<line x1="18.8" y1="27.4" x2="23.7" y2="21.4"/>
<line x1="64" y1="86" x2="53.5" y2="88"/>
<line x1="42.5" y1="88.7" x2="29.5" y2="83"/>
<line x1="75" y1="22.2" x2="70.5" y2="17"/>
<line x1="53.5" y1="88" x2="42.5" y2="88.7"/>
<line x1="11" y1="41.8" x2="18.8" y2="27.4"/>
<line x1="86.8" y1="34.7" x2="75" y2="22.2"/>
<line x1="13.2" y1="65.3" x2="29.5" y2="83"/>
<line x1="89" y1="58.2" x2="76.3" y2="78.6"/>
<line x1="85.1" y1="41.4" x2="86.8" y2="34.7"/>
<line x1="78.5" y1="60.3" x2="81.2" y2="72.6"/>
<line x1="64" y1="86" x2="78.5" y2="60.3"/>
<line x1="57.5" y1="11.3" x2="36" y2="14"/>
<line x1="41.8" y1="75.6" x2="64" y2="86"/>
<line x1="89" y1="58.2" x2="85.1" y2="41.4"/>
<line x1="36" y1="14" x2="18.8" y2="27.4"/>
<line x1="57.5" y1="11.3" x2="75" y2="22.2"/>
<line x1="53.5" y1="88" x2="76.3" y2="78.6"/>
<line x1="53.5" y1="88" x2="76.3" y2="78.6"/>
<line x1="41.8" y1="75.6" x2="42.5" y2="88.7"/>
<line x1="22.5" y1="67.4" x2="13.2" y2="65.3"/>
<line x1="78.5" y1="60.3" x2="89" y2="58.2"/>
<line x1="75" y1="22.2" x2="85.1" y2="41.4"/>
<line x1="29.5" y1="83" x2="22.5" y2="67.4"/>
<line x1="53.7" y1="20.3" x2="57.5" y2="11.3"/>
<line x1="53.5" y1="88" x2="22.5" y2="67.4"/>
<line x1="76.3" y1="78.6" x2="78.5" y2="60.3"/>
<line x1="63.5" y1="76.1" x2="76.3" y2="78.6"/>
<line x1="36" y1="14" x2="53.7" y2="20.3"/>
<line x1="63.5" y1="76.1" x2="53.5" y2="88"/>
<line x1="29.5" y1="83" x2="41.8" y2="75.6"/>
<line x1="30.9" y1="29.8" x2="36" y2="14"/>
<line x1="76.3" y1="78.6" x2="41.8" y2="75.6"/>
<line x1="18.8" y1="27.4" x2="30.9" y2="29.8"/>
<line x1="53.7" y1="20.3" x2="75" y2="22.2"/>
<line x1="41.8" y1="75.6" x2="53.5" y2="88"/>
<line x1="85.1" y1="41.4" x2="78.5" y2="60.3"/>
<line x1="33.1" y1="53.3" x2="29.5" y2="83"/>
<line x1="75" y1="22.2" x2="69.9" y2="38"/>
<line x1="69.9" y1="38" x2="85.1" y2="41.4"/>
<line x1="22.5" y1="67.4" x2="41.8" y2="75.6"/>
<line x1="78.5" y1="60.3" x2="63.5" y2="76.1"/>
<line x1="53.7" y1="20.3" x2="30.9" y2="29.8"/>
<line x1="78.5" y1="60.3" x2="41.8" y2="75.6"/>
<line x1="41.8" y1="75.6" x2="63.5" y2="76.1"/>
<line x1="69.9" y1="38" x2="78.5" y2="60.3"/>
<line x1="69.9" y1="38" x2="53.7" y2="20.3"/>
<line x1="33.1" y1="53.3" x2="22.5" y2="67.4"/>
<line x1="48.8" y1="38.2" x2="78.5" y2="60.3"/>
<line x1="78.5" y1="60.3" x2="57.2" y2="58.4"/>
<line x1="48.8" y1="38.2" x2="53.7" y2="20.3"/>
<line x1="63.5" y1="76.1" x2="57.2" y2="58.4"/>
<line x1="41.8" y1="75.6" x2="33.1" y2="53.3"/>
<line x1="41.8" y1="75.6" x2="33.1" y2="53.3"/>
<line x1="30.9" y1="29.8" x2="48.8" y2="38.2"/>
<line x1="48.8" y1="38.2" x2="41.8" y2="75.6"/>
<line x1="57.2" y1="58.4" x2="41.8" y2="75.6"/>
<line x1="48.8" y1="38.2" x2="69.9" y2="38"/>
<line x1="57.2" y1="58.4" x2="69.9" y2="38"/>
<line x1="48.8" y1="38.2" x2="33.1" y2="53.3"/>
<line x1="33.1" y1="53.3" x2="57.2" y2="58.4"/>
<line x1="57.2" y1="58.4" x2="48.8" y2="38.2"/>
</g>
<g fill="#888888" opacity="0.4">
<circle cx="77.5" cy="32.6" r="1.8"/>
<circle cx="81.2" cy="72.6" r="1.8"/>
<circle cx="51.2" cy="61.8" r="1.8"/>
<circle cx="14.9" cy="58.6" r="1.8"/>
<circle cx="36.5" cy="23.9" r="1.8"/>
<circle cx="42.5" cy="88.7" r="1.8"/>
<circle cx="70.5" cy="17" r="1.8"/>
<circle cx="86.8" cy="34.7" r="1.8"/>
<circle cx="66.9" cy="46.7" r="1.8"/>
<circle cx="42.8" cy="41.6" r="1.8"/>
<circle cx="58.2" cy="24.4" r="1.8"/>
<circle cx="64" cy="86" r="1.8"/>
<circle cx="46.3" cy="79.7" r="1.8"/>
<circle cx="69.1" cy="70.2" r="1.8"/>
<circle cx="23.7" cy="21.4" r="1.8"/>
<circle cx="21.5" cy="39.7" r="1.8"/>
<circle cx="11" cy="41.8" r="1.8"/>
<circle cx="25" cy="77.8" r="1.8"/>
<circle cx="30.1" cy="62" r="1.8"/>
<circle cx="46.5" cy="12" r="1.8"/>
<circle cx="46.5" cy="12" r="1.8"/>
</g>
<circle cx="13.2" cy="65.3" r="3.5" fill="#f5c518"/>
<circle cx="89" cy="58.2" r="3.5" fill="#f5c518"/>
<circle cx="57.5" cy="11.3" r="3.5" fill="#f5c518"/>
<circle cx="29.5" cy="83" r="3.5" fill="#f5c518"/>
<circle cx="76.3" cy="78.6" r="3.5" fill="#f5c518"/>
<circle cx="36" cy="14" r="3.5" fill="#f5c518"/>
<circle cx="18.8" cy="27.4" r="3.5" fill="#f5c518"/>
<circle cx="53.5" cy="88" r="3.5" fill="#f5c518"/>
<circle cx="53.5" cy="88" r="3.5" fill="#f5c518"/>
<circle cx="75" cy="22.2" r="3.5" fill="#f5c518"/>
<circle cx="85.1" cy="41.4" r="3.5" fill="#f5c518"/>
<circle cx="22.5" cy="67.4" r="3.5" fill="#f5c518"/>
<circle cx="78.5" cy="60.3" r="3.5" fill="#f5c518"/>
<circle cx="78.5" cy="60.3" r="3.5" fill="#f5c518"/>
<circle cx="53.7" cy="20.3" r="2.6" fill="#e0a800"/>
<circle cx="63.5" cy="76.1" r="2.6" fill="#e0a800"/>
<circle cx="30.9" cy="29.8" r="2.6" fill="#e0a800"/>
<circle cx="41.8" cy="75.6" r="2.6" fill="#e0a800"/>
<circle cx="41.8" cy="75.6" r="2.6" fill="#e0a800"/>
<circle cx="69.9" cy="38" r="2.6" fill="#e0a800"/>
<circle cx="33.1" cy="53.3" r="2.6" fill="#e0a800"/>
<circle cx="48.8" cy="38.2" r="2.6" fill="#e0a800"/>
<circle cx="57.2" cy="58.4" r="2.6" fill="#e0a800"/>
</g>
</svg>
